inDegrees=no
num_controls=7
num_derivatives=13
num_iterations=113
num_multipliers=7
num_parameters=0
num_slacks=7
num_states=26
objective=4.168073
objective_accelerations=0.292773
objective_balance=0.069150
objective_effort=0.299512
objective_height=3.424538
objective_ligament=0.082100
solver_duration=1241.534222
status=Solve_Succeeded
success=true
DataType=double
version=3
OpenSimVersion=4.4-2022-07-23-0e9fedc
endheader
time	/jointset/ground_pelvis/pelvis_tilt/value	/jointset/ground_pelvis/pelvis_tx/value	/jointset/ground_pelvis/pelvis_ty/value	/jointset/hip_l/hip_flexion_l/value	/jointset/hip_l/hip_adduction_l/value	/jointset/hip_l/hip_rotation_l/value	/jointset/back/lumbar_extension/value	/jointset/patellofemoral_l/patellar_flexion_l/value	/jointset/knee_l/knee_flexion_l/value	/jointset/knee_l/knee_adduction_l/value	/jointset/knee_l/knee_rotation_l/value	/jointset/ankle_l/ankle_angle_l/value	/jointset/subtalar_l/subtalar_angle_l/value	/jointset/ground_pelvis/pelvis_tilt/speed	/jointset/ground_pelvis/pelvis_tx/speed	/jointset/ground_pelvis/pelvis_ty/speed	/jointset/hip_l/hip_flexion_l/speed	/jointset/hip_l/hip_adduction_l/speed	/jointset/hip_l/hip_rotation_l/speed	/jointset/back/lumbar_extension/speed	/jointset/patellofemoral_l/patellar_flexion_l/speed	/jointset/knee_l/knee_flexion_l/speed	/jointset/knee_l/knee_adduction_l/speed	/jointset/knee_l/knee_rotation_l/speed	/jointset/ankle_l/ankle_angle_l/speed	/jointset/subtalar_l/subtalar_angle_l/speed	/forceset/tau_hip_flexion_l	/forceset/tau_hip_adduction_l	/forceset/tau_hip_rotation_l	/forceset/tau_knee_flexion_l	/forceset/tau_ankle_angle_l	/forceset/tau_subtalar_angle_l	/forceset/tau_lumbar_extension	lambda_cid13_p0	lambda_cid13_p1	lambda_cid13_p2	lambda_cid13_p3	lambda_cid13_p4	lambda_cid13_p5	lambda_cid14_p0	/jointset/ground_pelvis/pelvis_tilt/accel	/jointset/ground_pelvis/pelvis_tx/accel	/jointset/ground_pelvis/pelvis_ty/accel	/jointset/hip_l/hip_flexion_l/accel	/jointset/hip_l/hip_adduction_l/accel	/jointset/hip_l/hip_rotation_l/accel	/jointset/back/lumbar_extension/accel	/jointset/patellofemoral_l/patellar_flexion_l/accel	/jointset/knee_l/knee_flexion_l/accel	/jointset/knee_l/knee_adduction_l/accel	/jointset/knee_l/knee_rotation_l/accel	/jointset/ankle_l/ankle_angle_l/accel	/jointset/subtalar_l/subtalar_angle_l/accel	gamma_cid13_p0	gamma_cid13_p1	gamma_cid13_p2	gamma_cid13_p3	gamma_cid13_p4	gamma_cid13_p5	gamma_cid14_p0
1.5	-0.2794562877662083	0.006133439557482947	0.8131943074035243	0.9386515815579743	-0.3047459022564158	-0.05858345475218384	-0.3119726038879087	0.6365594311759292	0.6365594311759404	-0.1712430083271332	0.1745036814437668	0.1484907868836	-0.02010511220800682	0.2827938606608907	0.09861322975782402	0.3133793604944717	-1.469944260289632	0.03498775699694375	-0.5737769602708803	0.5810745138243743	-1.613567089726964	-1.613567089727174	0.01037519391815909	-0.000198499730419364	-0.5268882191018156	-0.05273405923027563	-0.1571010462215383	0.02733110579535555	-0.02444565816734718	-0.2218429206740634	0.06030322969368022	0.04242884938935725	0.1665605149201748	-19.21489198563388	-19.32186420096676	7.54327764123471	3.386621299992751	-613.6688229359747	-63.72480716448012	-31.24222884677065	0.2715159186129187	0.2765725421026348	-0.2577416901426145	-0.9208550053935592	0.4694648732539988	-0.3279098128781573	1.143225494678807	-0.9781565616381027	-0.9781565616381166	-0.04526349929129939	-0.02582323147770666	-0.3122391558662839	0.4460295376185372	7.010270544653101e-08	9.9596179168882e-07	-4.304809328077559e-07	7.873819448695654e-08	1.02298212036399e-07	5.508785924937132e-07	1.348545363555071e-07
1.51	-0.2766149541332954	0.007133308043213527	0.8163145926418232	0.9239078098808319	-0.3043730758867386	-0.06433753897203712	-0.3061056214605257	0.620377077114818	0.6203770771148406	-0.1711425163510106	0.1745016279916851	0.1432068679625178	-0.02061078346176618	0.285439425911872	0.1013477339076968	0.3106176003239021	-1.478603019488696	0.03958755130117178	-0.5769569745742188	0.5922414397551699	-1.622673078881979	-1.622673078882113	0.009713748264050019	-0.0002137452599699818	-0.5298147751527752	-0.04838764550983168	-0.1522945426780529	0.02616050040755201	-0.02434234129773058	-0.2201141016133919	0.06319558163676957	0.04175479994141369	0.1624547730682978	-18.18004765997893	-19.27634753118723	7.611442100589644	3.035287861121904	-611.0887223210198	-63.97159515745449	-32.09793499144173	0.2560696264013436	0.2699975127837159	-0.2943850201239345	-0.8073182085900084	0.456697544292053	-0.3004639730192986	1.091346357783858	-0.8422518282389098	-0.8422518282275453	-0.0778621652855267	0.01048931235771773	-0.2707285889738921	0.4307083369006142	6.722389010190526e-08	1.05770695126897e-06	-4.315652908372963e-07	8.677736705341466e-08	1.046972393020287e-07	5.779224261833778e-07	1.391671287926231e-07
1.52	-0.2737481662882546	0.008160143202713797	0.8194054619104935	0.9090836642454339	-0.3039539594069505	-0.07012090668172584	-0.300129385730728	0.6041105768150095	0.6041105768150118	-0.1710488942448371	0.1744993949894627	0.1378961105290746	-0.02107263836879218	0.2878847030852677	0.1040065645117618	0.307496166568938	-1.486019051944843	0.04424577901679626	-0.579633658235862	0.6029251743061154	-1.630396337469223	-1.630396337469282	0.009001219937363102	-0.0002344097474514401	-0.53225592157426	-0.04397078988365066	-0.1474880391344468	0.02498989501974863	-0.02423902442853808	-0.2183852825526512	0.0660879335798527	0.04108075049346927	0.1583490312165392	-17.15279557182619	-19.23150918239785	7.682008414743111	2.690158295935352	-608.6374120326798	-64.26520616916548	-32.93062307286464	0.2314583030959562	0.2614378329409877	-0.3296764070215269	-0.6723096568100653	0.4811515555333086	-0.2272436845392896	1.04658721870888	-0.7016104480840317	-0.7016104480840762	-0.0554800338068019	-0.0269070230637278	-0.2151572299714443	0.4601179187659127	6.309257067785018e-08	1.113978654867495e-06	-4.293457663826061e-07	9.460702986665975e-08	1.061027590655691e-07	6.00842376001104e-07	1.42481721553857e-07
1.53	-0.2708579326824358	0.009213171233599304	0.8224633571427548	0.8941915917334712	-0.3034880384027907	-0.07592861754363958	-0.2940488066548039	0.5877738369490256	0.5877738369490266	-0.1709626621261898	0.1744970332839195	0.1325634063217911	-0.02149003382023591	0.2901270568354979	0.1065842488657726	0.3040266692089714	-1.492183002329021	0.04894294427692927	-0.5818202172093855	0.6131025228903744	-1.636712914199061	-1.636712914199047	0.008234589963760142	-0.0002413089648704838	-0.5341995965686663	-0.03950068027273153	-0.1425827914701445	0.02362200530706981	-0.02417055448564462	-0.2167412896438775	0.06915652279951275	0.04035804423106774	0.1541651149991433	-16.07057425241419	-19.17540602117617	7.751054901398354	2.311528169260752	-606.1962227964478	-64.5702807407956	-33.73665677776208	0.2153871430297416	0.2537360736777278	-0.3639966736520938	-0.5565622437346436	0.4646172013585999	-0.2009647556357146	0.9900909800906461	-0.560902244520549	-0.56090224450955	-0.08868998520709112	0.01201167817262047	-0.1711572231153882	0.4414624671540736	5.763046566940147e-08	1.164434811485543e-06	-4.236158667884209e-07	1.022140885671161e-07	1.064526771081398e-07	6.193806992048958e-07	1.44735939659466e-07
1.54	-0.2679463228926947	0.01029153657543437	0.8254848753467821	0.8792442548147879	-0.3029750221079969	-0.08175551454568089	-0.2878690976326687	0.571381087123923	0.5713810871239209	-0.1708843834085076	0.1744945211960326	0.1272138284467752	-0.02186252717859039	0.2921599398674428	0.1090740267016734	0.3002207609223213	-1.497071933293716	0.05366483714128589	-0.5834708862579865	0.6227511635468747	-1.641598329292371	-1.641598329292284	0.007410539747362506	-0.0002644862121387935	-0.5356306551206799	-0.03499037126584151	-0.137677543805734	0.02225411559435679	-0.02410208454283926	-0.2150972967350873	0.07222511201915226	0.0396353379686239	0.1499811987818662	-14.99634722591619	-19.11956407750337	7.822040729269192	1.940696510494846	-603.8902030501273	-64.92263710044305	-34.51245698373538	0.1895641594390284	0.2438565293188714	-0.3969585923582338	-0.4173057729137481	0.4860970763780303	-0.1200656995549742	0.9408456331571663	-0.4153781207784085	-0.4153781207784236	-0.06696408236566553	-0.0301626290334316	-0.1126339414930372	0.4681577979600506	5.222819640110094e-08	1.212624221740723e-06	-4.189652551060679e-07	1.092815254886672e-07	1.072459154769343e-07	6.370087473313671e-07	1.469556903739353e-07
